<svg width="238" height="238" viewBox="0 0 238 238" fill="none" xmlns="http://www.w3.org/2000/svg">
<path d="M119 0C53.2525 0 0 53.2525 0 119C0 184.747 53.2525 238 119 238C184.747 238 238 184.747 238 119C238 53.2525 184.747 0 119 0ZM119 35.7C138.695 35.7 154.7 51.7055 154.7 71.4C154.7 91.154 138.695 107.1 119 107.1C99.3055 107.1 83.3 91.154 83.3 71.4C83.3 51.7055 99.3055 35.7 119 35.7ZM119 204.68C89.1905 204.68 63.0105 189.448 47.6 166.362C47.8975 142.74 95.2595 129.71 119 129.71C142.741 129.71 190.043 142.74 190.4 166.362C174.99 189.448 148.81 204.68 119 204.68Z" fill="#AB533C"/>
</svg>
